<svg height="120" viewBox="0 0 120 120" width="120" xmlns="http://www.w3.org/2000/svg"><path d="m26.0770915 30.199838c-.7686544.7883635-1.1480543 1.6309269-1.1383869 2.5276903.0100417.8967634.3894416 1.7196177 1.1383869 2.468563l12.741924 12.741924c.7489452.7489452 1.5717995 1.1234179 2.468563 1.1234179.8967634 0 1.7294722-.3843272 2.4981266-1.1529815l4.7893078-4.7597443c-.5715635-.689818-.8425634-1.4584723-.8129998-2.305963.0295637-.8474907.3596909-1.5865814.9903816-2.2172722.6306908-.6503998 1.3697815-.9854543 2.2172722-1.0051633.8474907-.0197091 1.6062905.2562181 2.2763994.8277816l17.4129773-17.3834137c2.2074176-2.2074177 3.320981-4.4690353 3.3409564-6.7848528.0194427-2.3158176-1.0547024-4.56758068-3.2227019-6.75528921l-4.3162898-4.28672617c-2.1877085-2.18770853-4.4345443-3.26678098-6.7405073-3.23721735-2.3059631.02956363-4.5725079 1.14805425-6.7996346 3.35547187l-17.3538501 17.41297736c.5715635.6701089.8425634 1.4289087.8129998 2.2763994s-.3596908 1.5865814-.9903816 2.2172721c-.6503998.6306908-1.3993451.960818-2.2468358.9903816s-1.6062905-.2512908-2.2763994-.8425634zm3.7841444 1.5077451 1.8625087-1.8625086c1.1037088.236509 2.1532176.182309 3.1485264-.1626s1.9364177-.9608179 2.8233266-1.8477268c.8869088-.8869088 1.4978905-1.8280177 1.8329449-2.8233265.3350545-.9953088.3744727-2.0251086.1182546-3.0893992l16.1713049-16.14174131c1.2810906-1.26138149 2.6015993-1.89699951 3.9615262-1.90696864 1.359927-.00973995 2.6607266.61602352 3.902399 1.87740501l4.5823625 4.55279884c1.2416724 1.2613815 1.8625086 2.5720357 1.8625086 3.9319626s-.6306908 2.6804357-1.8920722 3.9615263l-16.1417413 16.1713049c-1.0642907-.2562181-2.0940904-.2217272-3.0893992.1034727-.9953089.3251999-1.9462723.9411088-2.8528902 1.8477268-.8869089.8869089-1.4978905 1.8230904-1.832945 2.8085447s-.3941817 2.0398904-.1773818 3.1633083l-1.832945 1.832945c-.3153453.3153453-.6553271.4828726-1.0199451.5025817-.3646181.0197091-.7144544-.1379636-1.0495089-.4730181l-10.4063973-10.4063973c-.3153454-.3153454-.4631635-.6602544-.4434544-1.034727.0197091-.3744727.1773818-.7095271.473018-1.0051634zm15.9643596-9.1942885c-.2562182.236509-.3793999.5222907-.3695454.8573452s.1428909.6306907.399109.8869089c.1970909.1970908.4680908.3054908.8129998.3251999s.6257635-.0886909.8425634-.3251999l12.2097787-12.3280332c.236509-.2168.3596908-.4828726.3695453-.798218.0098546-.3153454-.1133272-.6011271-.3695453-.8573452-.2168-.2168-.4877999-.33012723-.8129998-.33998177s-.6060544.10347267-.8425634.33998177zm3.9615262 3.9910898c-.236509.2365091-.3498363.5222908-.3399817.8573453.0098545.3350544.1231818.6109816.3399817.8277816.2562181.236509.5469271.3547635.8721271.3547635.3251999 0 .6060544-.1182545.8425634-.3547635l12.2393423-12.2097787c.236509-.236509.3547635-.5173635.3547635-.8425634s-.1182545-.6159089-.3547635-.8721271c-.2168-.236509-.4976544-.3498362-.8425634-.3399817-.344909.0098546-.6257635.1231818-.8425635.3399817zm-42.54206175 29.1201744-6.79963461 10.110761c-.2759272.3941817-.42374535.7735816-.44345443 1.1381997-.01970909.3646181.10839997.6848907.38432717.9608179l5.76490761 5.7944713c.2759272.2759272.60112712.399109.97559975.3695453.37447263-.0295636.7587998-.1724545 1.15298152-.4286726l10.11076104-6.7996346c.926327-.6306908 1.4683269-1.4584724 1.6259996-2.4833448l.473018-3.104181 17.1469047-17.1173411-2.5424721-2.5424721-18.2111953 18.240759-.6503998 3.6363263-8.6325796 6.5631256-3.57719908-3.5771991 6.56312558-8.6325796 3.66589-.6208362 18.2111953-18.2407589-2.5424721-2.5424721-17.117341 17.1764683-3.10418106.4730181c-1.02487247.1379636-1.84279953.6799634-2.45378119 1.6259996z" transform="translate(22.736328 22.738672)"/></svg>